<svg width="222" height="37" viewBox="0 0 222 37" fill="none" xmlns="http://www.w3.org/2000/svg">
<path d="M2.1478 30C2.1478 28.992 2.1478 28.0167 2.1478 27.074C2.1478 26.1313 2.1478 25.0813 2.1478 23.924V22.384C2.1478 21.488 2.1478 20.69 2.1478 19.99C2.1478 19.29 2.1478 18.6273 2.1478 18.002C2.1478 17.3767 2.1478 16.728 2.1478 16.056L5.7038 15.944C5.7038 16.9427 5.7038 17.932 5.7038 18.912C5.7038 19.8827 5.7038 20.9 5.7038 21.964V24.596C5.7038 25.5667 5.7038 26.4813 5.7038 27.34C5.7038 28.1893 5.7038 29.076 5.7038 30H2.1478ZM11.1778 30C10.7018 29.4027 10.2165 28.81 9.7218 28.222C9.23646 27.6247 8.74646 27.0367 8.2518 26.458L6.4038 24.218H5.3818V21.81H6.5018L8.0978 19.78C8.59246 19.164 9.08246 18.5433 9.5678 17.918C10.0625 17.2927 10.5525 16.672 11.0378 16.056H15.2238C14.5145 16.8867 13.8051 17.7173 13.0958 18.548C12.3865 19.3787 11.6818 20.2047 10.9818 21.026L8.8818 23.476L8.7278 21.866L11.2618 24.96C11.9898 25.8 12.7131 26.6447 13.4318 27.494C14.1598 28.334 14.8831 29.1693 15.6018 30H11.1778ZM17.7884 30C17.7884 28.9827 17.7884 28.0027 17.7884 27.06C17.7884 26.108 17.7884 25.0533 17.7884 23.896V22.496C17.7884 21.6093 17.7884 20.8067 17.7884 20.088C17.7884 19.3693 17.7884 18.688 17.7884 18.044C17.7884 17.3907 17.7884 16.728 17.7884 16.056C18.7404 16.056 19.8558 16.056 21.1344 16.056C22.4224 16.056 23.6778 16.056 24.9004 16.056C26.1044 16.056 27.0611 16.196 27.7704 16.476C28.4798 16.7467 28.9884 17.1293 29.2964 17.624C29.6044 18.1093 29.7584 18.6787 29.7584 19.332C29.7584 20.2093 29.5344 20.9093 29.0864 21.432C28.6384 21.9453 28.1018 22.2953 27.4764 22.482V22.72C27.9151 22.8227 28.3304 23 28.7224 23.252C29.1238 23.4947 29.4504 23.8447 29.7024 24.302C29.9638 24.75 30.0944 25.352 30.0944 26.108C30.0944 26.8733 29.9218 27.55 29.5764 28.138C29.2311 28.7167 28.6338 29.174 27.7844 29.51C26.9351 29.8367 25.7404 30 24.2004 30C22.9031 30 21.7131 30 20.6304 30C19.5478 30 18.6004 30 17.7884 30ZM21.2464 27.326H23.7944C24.4664 27.326 24.9984 27.27 25.3904 27.158C25.7918 27.046 26.0811 26.8687 26.2584 26.626C26.4358 26.3833 26.5244 26.08 26.5244 25.716C26.5244 25.156 26.3144 24.7453 25.8944 24.484C25.4744 24.2227 24.8398 24.092 23.9904 24.092H20.2524V21.782H23.7524C24.3311 21.782 24.7931 21.7167 25.1384 21.586C25.4931 21.4553 25.7498 21.2733 25.9084 21.04C26.0671 20.7973 26.1464 20.5127 26.1464 20.186C26.1464 19.6633 25.9644 19.29 25.6004 19.066C25.2458 18.8327 24.7278 18.716 24.0464 18.716H21.2464C21.2464 19.36 21.2464 19.976 21.2464 20.564C21.2464 21.152 21.2464 21.796 21.2464 22.496V23.896C21.2464 24.5307 21.2464 25.1187 21.2464 25.66C21.2464 26.2013 21.2464 26.7567 21.2464 27.326ZM36.3949 30.322C35.6109 30.322 34.9109 30.1587 34.2949 29.832C33.6789 29.5053 33.1889 29.034 32.8249 28.418C32.4702 27.7927 32.2929 27.0413 32.2929 26.164C32.2929 25.3893 32.4282 24.736 32.6989 24.204C32.9695 23.6627 33.3242 23.224 33.7629 22.888C34.2109 22.5427 34.7009 22.2767 35.2329 22.09C35.7742 21.9033 36.3202 21.768 36.8709 21.684L40.8609 21.096C40.8889 20.4427 40.7769 19.9387 40.5249 19.584C40.2822 19.2293 39.9322 18.9867 39.4749 18.856C39.0175 18.716 38.4902 18.646 37.8929 18.646C37.5755 18.646 37.2302 18.674 36.8569 18.73C36.4929 18.7767 36.1055 18.8513 35.6949 18.954C35.2935 19.0567 34.8735 19.1873 34.4349 19.346C33.9962 19.4953 33.5482 19.6773 33.0909 19.892L32.9229 16.798C33.2682 16.6673 33.6555 16.5367 34.0849 16.406C34.5235 16.2753 34.9995 16.1587 35.5129 16.056C36.0262 15.944 36.5582 15.86 37.1089 15.804C37.6689 15.7387 38.2429 15.706 38.8309 15.706C39.9695 15.706 40.9402 15.874 41.7429 16.21C42.5549 16.5367 43.1755 17.064 43.6049 17.792C44.0342 18.5107 44.2489 19.4487 44.2489 20.606C44.2489 21.054 44.2489 21.6093 44.2489 22.272C44.2489 22.9347 44.2489 23.5413 44.2489 24.092V25.632C44.2489 26.3133 44.2489 27.0087 44.2489 27.718C44.2489 28.418 44.2489 29.1787 44.2489 30H41.0989L40.8889 28.18H40.5949C40.3335 28.5253 40.0069 28.8613 39.6149 29.188C39.2229 29.5053 38.7562 29.776 38.2149 30C37.6829 30.2147 37.0762 30.322 36.3949 30.322ZM37.6829 27.536C38.0749 27.536 38.4622 27.4427 38.8449 27.256C39.2275 27.0693 39.5822 26.808 39.9089 26.472C40.2449 26.136 40.5295 25.7347 40.7629 25.268V23.07C40.6415 23.154 40.4782 23.2333 40.2729 23.308C40.0769 23.3733 39.7829 23.448 39.3909 23.532C38.9989 23.616 38.4482 23.7233 37.7389 23.854C37.3375 23.9287 36.9969 24.0547 36.7169 24.232C36.4462 24.4093 36.2362 24.638 36.0869 24.918C35.9375 25.198 35.8629 25.52 35.8629 25.884C35.8629 26.4907 36.0449 26.92 36.4089 27.172C36.7822 27.4147 37.2069 27.536 37.6829 27.536ZM47.9311 30.294C47.7351 30.294 47.5157 30.2847 47.2731 30.266C47.0397 30.2473 46.8111 30.2193 46.5871 30.182C46.3724 30.154 46.1811 30.112 46.0131 30.056L46.1671 27.088C46.3164 27.116 46.4611 27.1393 46.6011 27.158C46.7504 27.1673 46.8671 27.172 46.9511 27.172C47.4084 27.172 47.7724 26.9993 48.0431 26.654C48.3231 26.3087 48.5377 25.8513 48.6871 25.282C48.8364 24.7033 48.9484 24.0687 49.0231 23.378C49.0977 22.678 49.1537 21.978 49.1911 21.278C49.2471 20.382 49.3031 19.4953 49.3591 18.618C49.4244 17.7313 49.4851 16.8773 49.5411 16.056H60.3911C60.3911 16.728 60.3911 17.3907 60.3911 18.044C60.3911 18.688 60.3911 19.374 60.3911 20.102C60.3911 20.8207 60.3911 21.628 60.3911 22.524V23.924C60.3911 25.0813 60.3911 26.1313 60.3911 27.074C60.3911 28.0167 60.3911 28.992 60.3911 30H56.8351C56.8351 28.992 56.8351 28.0167 56.8351 27.074C56.8351 26.1313 56.8351 25.0813 56.8351 23.924V22.524C56.8351 21.7027 56.8351 20.9653 56.8351 20.312C56.8351 19.6587 56.8351 19.038 56.8351 18.45C56.8351 17.862 56.8351 17.2507 56.8351 16.616L58.9491 18.87H50.9831L52.7051 16.616C52.6584 17.232 52.6117 17.8853 52.5651 18.576C52.5184 19.2573 52.4671 19.9387 52.4111 20.62C52.3644 21.292 52.3177 21.9453 52.2711 22.58C52.1871 23.6813 52.0751 24.7033 51.9351 25.646C51.8044 26.5793 51.5944 27.396 51.3051 28.096C51.0157 28.7867 50.6004 29.328 50.0591 29.72C49.5271 30.1027 48.8177 30.294 47.9311 30.294ZM64.0267 30C64.0267 28.9827 64.0267 28.0073 64.0267 27.074C64.0267 26.1313 64.0267 25.0813 64.0267 23.924V22.524C64.0267 21.628 64.0267 20.8207 64.0267 20.102C64.0267 19.3833 64.0267 18.6973 64.0267 18.044C64.0267 17.3907 64.0267 16.728 64.0267 16.056L67.4567 15.958C67.4567 16.5833 67.4567 17.204 67.4567 17.82C67.4567 18.436 67.4567 19.0893 67.4567 19.78C67.4567 20.4613 67.4567 21.222 67.4567 22.062V25.142H67.6807L69.9907 21.18C70.504 20.3213 71.008 19.4627 71.5027 18.604C72.0067 17.736 72.5014 16.8867 72.9867 16.056H76.6407C76.6407 16.728 76.6407 17.3907 76.6407 18.044C76.6407 18.6973 76.6407 19.3833 76.6407 20.102C76.6407 20.8207 76.6407 21.628 76.6407 22.524V23.924C76.6407 25.0813 76.6407 26.1313 76.6407 27.074C76.6407 28.0073 76.6407 28.9827 76.6407 30H73.2387C73.2387 29.0107 73.2387 28.054 73.2387 27.13C73.2387 26.1967 73.2387 25.1653 73.2387 24.036V20.9H72.9867L70.7187 24.806C70.2147 25.6833 69.7107 26.556 69.2067 27.424C68.7027 28.292 68.1987 29.1507 67.6947 30H64.0267ZM87.9969 35.488C87.9969 34.508 87.9969 33.542 87.9969 32.59C87.9969 31.638 87.9969 30.602 87.9969 29.482V29.006H87.7729C87.5116 29.2673 87.2082 29.5007 86.8629 29.706C86.5269 29.902 86.1629 30.056 85.7709 30.168C85.3882 30.2893 84.9636 30.35 84.4969 30.35C83.6009 30.35 82.8309 30.1587 82.1869 29.776C81.5429 29.384 81.0202 28.8473 80.6189 28.166C80.2269 27.4753 79.9329 26.6913 79.7369 25.814C79.5502 24.9273 79.4569 23.9893 79.4569 23C79.4569 21.5907 79.6389 20.3353 80.0029 19.234C80.3669 18.1327 80.9129 17.2693 81.6409 16.644C82.3689 16.0093 83.2742 15.692 84.3569 15.692C84.8609 15.692 85.3229 15.762 85.7429 15.902C86.1629 16.042 86.5362 16.224 86.8629 16.448C87.1896 16.672 87.4696 16.91 87.7029 17.162H87.9969V16.182C87.9969 15.034 87.9969 13.9047 87.9969 12.794C87.9969 11.674 87.9969 10.5727 87.9969 9.49L91.4829 9.154C91.4829 10.2553 91.4829 11.3847 91.4829 12.542C91.4829 13.6993 91.4829 14.9127 91.4829 16.182V17.162H91.7769C92.0102 16.91 92.2856 16.672 92.6029 16.448C92.9296 16.224 93.3029 16.042 93.7229 15.902C94.1522 15.762 94.6189 15.692 95.1229 15.692C95.9256 15.692 96.6349 15.874 97.2509 16.238C97.8669 16.602 98.3802 17.1107 98.7909 17.764C99.2016 18.4173 99.5096 19.192 99.7149 20.088C99.9202 20.9747 100.023 21.9453 100.023 23C100.023 24.316 99.8502 25.534 99.5049 26.654C99.1689 27.7647 98.6322 28.6607 97.8949 29.342C97.1576 30.014 96.1869 30.35 94.9829 30.35C94.5256 30.35 94.0962 30.2893 93.6949 30.168C93.3029 30.056 92.9389 29.902 92.6029 29.706C92.2762 29.5007 91.9729 29.2673 91.6929 29.006H91.4829V29.482C91.4829 30.546 91.4829 31.54 91.4829 32.464C91.4829 33.388 91.4829 34.3587 91.4829 35.376L87.9969 35.488ZM85.8129 27.424C86.1302 27.424 86.4242 27.3727 86.6949 27.27C86.9656 27.158 87.2082 26.9993 87.4229 26.794C87.6469 26.5887 87.8382 26.346 87.9969 26.066V19.766C87.8289 19.5233 87.6236 19.3227 87.3809 19.164C87.1476 19.0053 86.8909 18.884 86.6109 18.8C86.3402 18.716 86.0649 18.674 85.7849 18.674C85.1316 18.674 84.5996 18.8607 84.1889 19.234C83.7876 19.598 83.4936 20.1067 83.3069 20.76C83.1202 21.4133 83.0269 22.1693 83.0269 23.028C83.0269 23.616 83.0736 24.176 83.1669 24.708C83.2602 25.24 83.4142 25.7113 83.6289 26.122C83.8436 26.5233 84.1282 26.8407 84.4829 27.074C84.8469 27.3073 85.2902 27.424 85.8129 27.424ZM93.6669 27.424C94.3576 27.424 94.9036 27.2233 95.3049 26.822C95.7156 26.4113 96.0049 25.8747 96.1729 25.212C96.3502 24.54 96.4389 23.812 96.4389 23.028C96.4389 22.1693 96.3456 21.4133 96.1589 20.76C95.9722 20.1067 95.6782 19.598 95.2769 19.234C94.8756 18.8607 94.3482 18.674 93.6949 18.674C93.4149 18.674 93.1349 18.716 92.8549 18.8C92.5842 18.884 92.3276 19.0053 92.0849 19.164C91.8516 19.3227 91.6509 19.5233 91.4829 19.766V26.066C91.7349 26.486 92.0382 26.8173 92.3929 27.06C92.7569 27.3027 93.1816 27.424 93.6669 27.424ZM102.8 30C102.8 28.9827 102.8 28.0073 102.8 27.074C102.8 26.1313 102.8 25.0813 102.8 23.924V22.524C102.8 21.628 102.8 20.8207 102.8 20.102C102.8 19.3833 102.8 18.6973 102.8 18.044C102.8 17.3907 102.8 16.728 102.8 16.056L106.23 15.958C106.23 16.5833 106.23 17.204 106.23 17.82C106.23 18.436 106.23 19.0893 106.23 19.78C106.23 20.4613 106.23 21.222 106.23 22.062V25.142H106.454L108.764 21.18C109.277 20.3213 109.781 19.4627 110.276 18.604C110.78 17.736 111.275 16.8867 111.76 16.056H115.414C115.414 16.728 115.414 17.3907 115.414 18.044C115.414 18.6973 115.414 19.3833 115.414 20.102C115.414 20.8207 115.414 21.628 115.414 22.524V23.924C115.414 25.0813 115.414 26.1313 115.414 27.074C115.414 28.0073 115.414 28.9827 115.414 30H112.012C112.012 29.0107 112.012 28.054 112.012 27.13C112.012 26.1967 112.012 25.1653 112.012 24.036V20.9H111.76L109.492 24.806C108.988 25.6833 108.484 26.556 107.98 27.424C107.476 28.292 106.972 29.1507 106.468 30H102.8ZM119.042 30C119.042 28.992 119.042 28.0167 119.042 27.074C119.042 26.1313 119.042 25.0813 119.042 23.924V22.384C119.042 21.488 119.042 20.69 119.042 19.99C119.042 19.29 119.042 18.6273 119.042 18.002C119.042 17.3767 119.042 16.728 119.042 16.056L122.598 15.944C122.598 16.9427 122.598 17.932 122.598 18.912C122.598 19.8827 122.598 20.9 122.598 21.964V24.596C122.598 25.5667 122.598 26.4813 122.598 27.34C122.598 28.1893 122.598 29.076 122.598 30H119.042ZM128.072 30C127.596 29.4027 127.111 28.81 126.616 28.222C126.131 27.6247 125.641 27.0367 125.146 26.458L123.298 24.218H122.276V21.81H123.396L124.992 19.78C125.487 19.164 125.977 18.5433 126.462 17.918C126.957 17.2927 127.447 16.672 127.932 16.056H132.118C131.409 16.8867 130.7 17.7173 129.99 18.548C129.281 19.3787 128.576 20.2047 127.876 21.026L125.776 23.476L125.622 21.866L128.156 24.96C128.884 25.8 129.608 26.6447 130.326 27.494C131.054 28.334 131.778 29.1693 132.496 30H128.072ZM138.141 30.322C137.357 30.322 136.657 30.1587 136.041 29.832C135.425 29.5053 134.935 29.034 134.571 28.418C134.216 27.7927 134.039 27.0413 134.039 26.164C134.039 25.3893 134.174 24.736 134.445 24.204C134.716 23.6627 135.07 23.224 135.509 22.888C135.957 22.5427 136.447 22.2767 136.979 22.09C137.52 21.9033 138.066 21.768 138.617 21.684L142.607 21.096C142.635 20.4427 142.523 19.9387 142.271 19.584C142.028 19.2293 141.678 18.9867 141.221 18.856C140.764 18.716 140.236 18.646 139.639 18.646C139.322 18.646 138.976 18.674 138.603 18.73C138.239 18.7767 137.852 18.8513 137.441 18.954C137.04 19.0567 136.62 19.1873 136.181 19.346C135.742 19.4953 135.294 19.6773 134.837 19.892L134.669 16.798C135.014 16.6673 135.402 16.5367 135.831 16.406C136.27 16.2753 136.746 16.1587 137.259 16.056C137.772 15.944 138.304 15.86 138.855 15.804C139.415 15.7387 139.989 15.706 140.577 15.706C141.716 15.706 142.686 15.874 143.489 16.21C144.301 16.5367 144.922 17.064 145.351 17.792C145.78 18.5107 145.995 19.4487 145.995 20.606C145.995 21.054 145.995 21.6093 145.995 22.272C145.995 22.9347 145.995 23.5413 145.995 24.092V25.632C145.995 26.3133 145.995 27.0087 145.995 27.718C145.995 28.418 145.995 29.1787 145.995 30H142.845L142.635 28.18H142.341C142.08 28.5253 141.753 28.8613 141.361 29.188C140.969 29.5053 140.502 29.776 139.961 30C139.429 30.2147 138.822 30.322 138.141 30.322ZM139.429 27.536C139.821 27.536 140.208 27.4427 140.591 27.256C140.974 27.0693 141.328 26.808 141.655 26.472C141.991 26.136 142.276 25.7347 142.509 25.268V23.07C142.388 23.154 142.224 23.2333 142.019 23.308C141.823 23.3733 141.529 23.448 141.137 23.532C140.745 23.616 140.194 23.7233 139.485 23.854C139.084 23.9287 138.743 24.0547 138.463 24.232C138.192 24.4093 137.982 24.638 137.833 24.918C137.684 25.198 137.609 25.52 137.609 25.884C137.609 26.4907 137.791 26.92 138.155 27.172C138.528 27.4147 138.953 27.536 139.429 27.536ZM160.709 33.794L160.569 29.566L161.171 30H149.257C149.257 28.992 149.257 28.0167 149.257 27.074C149.257 26.1313 149.257 25.0813 149.257 23.924V22.524C149.257 21.628 149.257 20.8207 149.257 20.102C149.257 19.374 149.257 18.688 149.257 18.044C149.257 17.3907 149.257 16.728 149.257 16.056L152.813 15.944C152.813 16.616 152.813 17.288 152.813 17.96C152.813 18.6227 152.813 19.3227 152.813 20.06C152.813 20.788 152.813 21.6093 152.813 22.524V23.924C152.813 24.6893 152.813 25.3753 152.813 25.982C152.813 26.5887 152.813 27.1673 152.813 27.718C152.813 28.2687 152.813 28.8427 152.813 29.44L150.643 27.186H157.629C158.609 27.186 159.622 27.186 160.667 27.186C161.722 27.186 162.758 27.186 163.775 27.186C163.775 27.7273 163.775 28.2967 163.775 28.894C163.775 29.4913 163.775 30.0653 163.775 30.616C163.775 31.1387 163.775 31.666 163.775 32.198C163.775 32.73 163.775 33.262 163.775 33.794H160.709ZM158.119 29.44C158.119 28.8427 158.119 28.2687 158.119 27.718C158.119 27.1673 158.119 26.5887 158.119 25.982C158.119 25.3753 158.119 24.6893 158.119 23.924V22.524C158.119 21.628 158.119 20.8207 158.119 20.102C158.119 19.374 158.119 18.688 158.119 18.044C158.119 17.3907 158.119 16.728 158.119 16.056H161.675C161.675 16.728 161.675 17.3907 161.675 18.044C161.675 18.688 161.675 19.374 161.675 20.102C161.675 20.8207 161.675 21.628 161.675 22.524V23.924C161.675 24.6893 161.675 25.3753 161.675 25.982C161.675 26.5887 161.675 27.1673 161.675 27.718C161.675 28.2687 161.675 28.8427 161.675 29.44H158.119ZM166.019 30C166.019 28.9827 166.019 28.0073 166.019 27.074C166.019 26.1313 166.019 25.0813 166.019 23.924V22.524C166.019 21.628 166.019 20.8207 166.019 20.102C166.019 19.3833 166.019 18.6973 166.019 18.044C166.019 17.3907 166.019 16.728 166.019 16.056L169.449 15.958C169.449 16.5833 169.449 17.204 169.449 17.82C169.449 18.436 169.449 19.0893 169.449 19.78C169.449 20.4613 169.449 21.222 169.449 22.062V25.142H169.673L171.983 21.18C172.496 20.3213 173 19.4627 173.495 18.604C173.999 17.736 174.494 16.8867 174.979 16.056H178.633C178.633 16.728 178.633 17.3907 178.633 18.044C178.633 18.6973 178.633 19.3833 178.633 20.102C178.633 20.8207 178.633 21.628 178.633 22.524V23.924C178.633 25.0813 178.633 26.1313 178.633 27.074C178.633 28.0073 178.633 28.9827 178.633 30H175.231C175.231 29.0107 175.231 28.054 175.231 27.13C175.231 26.1967 175.231 25.1653 175.231 24.036V20.9H174.979L172.711 24.806C172.207 25.6833 171.703 26.556 171.199 27.424C170.695 28.292 170.191 29.1507 169.687 30H166.019ZM181.155 30C181.622 29.3187 182.084 28.6327 182.541 27.942C182.998 27.2513 183.446 26.5793 183.885 25.926L185.789 23.084L186.797 24.498C185.593 24.498 184.618 24.3253 183.871 23.98C183.134 23.6347 182.592 23.1447 182.247 22.51C181.911 21.8753 181.743 21.138 181.743 20.298C181.743 19.262 181.967 18.436 182.415 17.82C182.872 17.204 183.53 16.756 184.389 16.476C185.257 16.196 186.312 16.056 187.553 16.056C188.318 16.056 189.088 16.056 189.863 16.056C190.647 16.056 191.384 16.056 192.075 16.056C192.775 16.056 193.368 16.056 193.853 16.056C193.853 16.728 193.853 17.3907 193.853 18.044C193.853 18.6973 193.853 19.3833 193.853 20.102C193.853 20.8207 193.853 21.628 193.853 22.524V23.924C193.853 25.0813 193.853 26.1313 193.853 27.074C193.853 28.0073 193.853 28.9827 193.853 30H190.395C190.395 29.44 190.395 28.8987 190.395 28.376C190.395 27.8533 190.395 27.3167 190.395 26.766C190.395 26.206 190.395 25.6133 190.395 24.988V22.51C190.395 21.8193 190.395 21.1707 190.395 20.564C190.395 19.948 190.395 19.346 190.395 18.758H187.889C187.478 18.758 187.077 18.814 186.685 18.926C186.293 19.0287 185.966 19.2293 185.705 19.528C185.453 19.8267 185.327 20.2513 185.327 20.802C185.327 21.2687 185.416 21.6327 185.593 21.894C185.78 22.1553 186.013 22.3467 186.293 22.468C186.582 22.5893 186.881 22.664 187.189 22.692C187.506 22.72 187.791 22.734 188.043 22.734H190.927V25.114H187.189L188.953 23.91L187.427 26.276C187.035 26.9013 186.638 27.5267 186.237 28.152C185.845 28.768 185.448 29.384 185.047 30H181.155Z" fill="black"/>
<path d="M198.5 31L205 23L211 27.5L220.5 17.5M220.5 17.5H213M220.5 17.5V25" stroke="black" stroke-width="3"/>
</svg>
