<svg width="18" height="21" viewBox="0 0 18 21" fill="none" xmlns="http://www.w3.org/2000/svg">
<path d="M4 6C4 3.23858 6.23858 1 9 1C11.7614 1 14 3.23858 14 6V9C14 11.7614 11.7614 14 9 14C6.23858 14 4 11.7614 4 9V6Z" stroke="white" stroke-width="1.5"/>
<path d="M10 9H14" stroke="white" stroke-width="1.5" stroke-linecap="round"/>
<path d="M10 6H14" stroke="white" stroke-width="1.5" stroke-linecap="round"/>
<path d="M9 17V20" stroke="white" stroke-width="1.5" stroke-linecap="round"/>
<path d="M17.75 8C17.75 7.58579 17.4142 7.25 17 7.25C16.5858 7.25 16.25 7.58579 16.25 8H17.75ZM1.75 8C1.75 7.58579 1.41421 7.25 1 7.25C0.58579 7.25 0.25 7.58579 0.25 8H1.75ZM12.5121 15.3442C12.1499 15.5452 12.0192 16.0017 12.2202 16.3639C12.4212 16.7261 12.8777 16.8568 13.2399 16.6558L12.5121 15.3442ZM16.25 8V9H17.75V8H16.25ZM1.75 9V8H0.25V9H1.75ZM9 16.25C4.99594 16.25 1.75 13.0041 1.75 9H0.25C0.25 13.8325 4.16751 17.75 9 17.75V16.25ZM16.25 9C16.25 11.7287 14.7429 14.1063 12.5121 15.3442L13.2399 16.6558C15.928 15.1642 17.75 12.2954 17.75 9H16.25Z" fill="white"/>
</svg>
