<svg width="22" height="22" viewBox="0 0 22 22" fill="none" xmlns="http://www.w3.org/2000/svg">
<path fill-rule="evenodd" clip-rule="evenodd" d="M10.75 0C11.1642 0 11.5 0.33579 11.5 0.75V1.00143C11.6112 1.00311 11.7061 1.00675 11.7946 1.01458C13.6048 1.17465 15.0396 2.60953 15.1997 4.41968C15.2143 4.58512 15.2143 4.77256 15.2143 5.04785V6.271C15.2143 10.1403 12.2702 13.3219 8.50001 13.6981V15.7501C8.50001 18.0973 10.4028 20.0001 12.75 20.0001H13.6324C14.8825 20.0001 15.9747 19.3184 16.5557 18.3058C15.0702 17.8071 14 16.4035 14 14.75C14 12.6789 15.6789 11 17.75 11C19.8211 11 21.5 12.6789 21.5 14.75C21.5 16.6905 20.0261 18.2867 18.1368 18.4803C17.4092 20.2518 15.6674 21.5001 13.6324 21.5001H12.75C9.5744 21.5001 7.00001 18.9257 7.00001 15.7501V13.6995C3.0717 13.3222 1.2669e-05 10.0125 1.2669e-05 5.98529L2.65545e-06 5.04791C-2.73445e-05 4.77259 -4.73335e-05 4.58514 0.0145827 4.41968C0.174653 2.60953 1.60954 1.17465 3.41969 1.01458C3.57536 1.00081 3.75051 1.00002 4.00001 0.99999V0.75C4.00001 0.33579 4.33579 0 4.75001 0C5.16422 0 5.50001 0.33579 5.50001 0.75V2.75C5.50001 3.16421 5.16422 3.5 4.75001 3.5C4.33579 3.5 4.00001 3.16421 4.00001 2.75V2.50002C3.7366 2.5002 3.63393 2.50148 3.55181 2.50875C2.46573 2.60479 1.60479 3.46572 1.50875 4.55181C1.50074 4.6424 1.50001 4.75802 1.50001 5.0869V5.98529C1.50001 9.4371 4.29823 12.2353 7.75001 12.2353C11.044 12.2353 13.7143 9.565 13.7143 6.271V5.0869C13.7143 4.75802 13.7136 4.6424 13.7055 4.55181C13.6095 3.46572 12.7486 2.60479 11.6625 2.50875C11.6202 2.505 11.5724 2.50285 11.5 2.50162V2.75C11.5 3.16421 11.1642 3.5 10.75 3.5C10.3358 3.5 10 3.16421 10 2.75V0.75C10 0.33579 10.3358 0 10.75 0ZM15.5 14.75C15.5 13.5074 16.5074 12.5 17.75 12.5C18.9926 12.5 20 13.5074 20 14.75C20 15.9926 18.9926 17 17.75 17C16.5074 17 15.5 15.9926 15.5 14.75Z" fill="white"/>
</svg>
