<svg width="16" height="20" viewBox="0 0 17 20" fill="none" xmlns="http://www.w3.org/2000/svg">
<path d="M10.7463 13.8598L12.1342 12.1798C12.3212 11.9564 12.5577 11.8034 12.8151 11.7395C13.0725 11.6756 13.3396 11.7035 13.5842 11.8198L15.2757 12.6373C15.5228 12.7587 15.7347 12.966 15.8847 13.2329C16.0346 13.4998 16.116 13.8145 16.1184 14.1373V17.8873C16.117 18.1069 16.0788 18.3239 16.0063 18.5252C15.9338 18.7264 15.8283 18.9079 15.6963 19.0585C15.5643 19.2092 15.4085 19.3259 15.2383 19.4018C15.068 19.4776 14.8869 19.511 14.7057 19.4998C2.85231 18.6073 0.460575 6.45733 0.00825179 1.80734C-0.0127454 1.57899 0.00643917 1.34785 0.0645433 1.12912C0.122647 0.91039 0.218354 0.709031 0.345367 0.538288C0.472381 0.367546 0.627822 0.23129 0.801465 0.138484C0.975107 0.0456784 1.16302 -0.00157383 1.35283 -0.000163807H4.3456C4.61266 0.000793032 4.87338 0.0984369 5.09422 0.280208C5.31507 0.46198 5.48593 0.719566 5.58484 1.01984L6.26023 3.06734C6.35953 3.36214 6.38486 3.68582 6.33307 3.99795C6.28127 4.31007 6.15465 4.59681 5.96901 4.82234L4.58106 6.50234C4.58106 6.50234 5.38037 13.0498 10.7463 13.8598Z" fill="black"/>
</svg>
