<svg width="37" height="32" viewBox="0 0 37 32" fill="none" xmlns="http://www.w3.org/2000/svg">
<mask id="path-1-inside-1_352_330" fill="white">
<path d="M30.9975 20.2C30.1614 23.4273 28.3229 26.306 25.7465 28.4218C23.1702 30.5376 19.989 31.7814 16.6608 31.974C13.3325 32.1667 10.029 31.2984 7.22575 29.494C4.42247 27.6897 2.26401 25.0424 1.06108 21.9332C-0.141848 18.824 -0.327199 15.4133 0.531709 12.192C1.39062 8.9708 3.24948 6.10517 5.84072 4.00765C8.43196 1.91013 11.6219 0.688914 14.9514 0.519792C18.2809 0.350669 21.5782 1.24236 24.3686 3.06652L23.1886 4.87166C20.7802 3.29728 17.9344 2.52768 15.0608 2.67365C12.1872 2.81961 9.43404 3.87361 7.19761 5.68393C4.96118 7.49424 3.35684 9.96749 2.61554 12.7477C1.87423 15.5278 2.03421 18.4715 3.07242 21.155C4.11064 23.8384 5.97355 26.1233 8.39299 27.6806C10.8124 29.2379 13.6636 29.9873 16.5361 29.821C19.4086 29.6547 22.1542 28.5813 24.3778 26.7552C26.6014 24.9291 28.1882 22.4445 28.9098 19.6592L30.9975 20.2Z"/>
</mask>
<path d="M30.9975 20.2C30.1614 23.4273 28.3229 26.306 25.7465 28.4218C23.1702 30.5376 19.989 31.7814 16.6608 31.974C13.3325 32.1667 10.029 31.2984 7.22575 29.494C4.42247 27.6897 2.26401 25.0424 1.06108 21.9332C-0.141848 18.824 -0.327199 15.4133 0.531709 12.192C1.39062 8.9708 3.24948 6.10517 5.84072 4.00765C8.43196 1.91013 11.6219 0.688914 14.9514 0.519792C18.2809 0.350669 21.5782 1.24236 24.3686 3.06652L23.1886 4.87166C20.7802 3.29728 17.9344 2.52768 15.0608 2.67365C12.1872 2.81961 9.43404 3.87361 7.19761 5.68393C4.96118 7.49424 3.35684 9.96749 2.61554 12.7477C1.87423 15.5278 2.03421 18.4715 3.07242 21.155C4.11064 23.8384 5.97355 26.1233 8.39299 27.6806C10.8124 29.2379 13.6636 29.9873 16.5361 29.821C19.4086 29.6547 22.1542 28.5813 24.3778 26.7552C26.6014 24.9291 28.1882 22.4445 28.9098 19.6592L30.9975 20.2Z" stroke="#FF7F00" stroke-width="4" mask="url(#path-1-inside-1_352_330)"/>
<path d="M9.00049 13.2505L16.5007 21.5008L35.5 2.50146" stroke="#FF7F00" stroke-width="2"/>
</svg>
