<svg width="17" height="17" viewBox="0 0 17 17" fill="none" xmlns="http://www.w3.org/2000/svg">
<path d="M13.6766 16.3916C12.9829 16.3916 12.3308 16.1174 11.8399 15.6202L8.27414 12.006L4.70833 15.6202C4.21814 16.1174 3.56567 16.3916 2.87164 16.3916C2.17761 16.3916 1.52575 16.1174 1.03495 15.6202C0.544448 15.1233 0.273987 14.462 0.273987 13.7584C0.273987 13.0549 0.544448 12.3938 1.03525 11.8963L4.60045 8.28209L1.25101 4.88656C0.760512 4.38967 0.49005 3.72828 0.49005 3.02476C0.49005 2.32124 0.760512 1.66016 1.25101 1.16296C1.74151 0.66576 2.39367 0.391602 3.08801 0.391602C3.78204 0.391602 4.4342 0.66576 4.9247 1.16296L8.27414 4.5585L11.6236 1.16327C12.1141 0.66607 12.7659 0.391911 13.4603 0.391911C14.1546 0.391911 14.8068 0.66607 15.297 1.16327C15.7875 1.66016 16.0579 2.32155 16.0579 3.02507C16.0579 3.72859 15.7875 4.38967 15.297 4.88687L11.9478 8.28209L15.513 11.8966C16.0035 12.3935 16.274 13.0546 16.274 13.7584C16.274 14.462 16.0035 15.123 15.513 15.6202C15.0231 16.1174 14.3707 16.3916 13.6766 16.3916ZM8.27414 10.5104C8.4303 10.5104 8.58677 10.5708 8.70627 10.6919L12.7042 14.7442C12.9646 15.0078 13.3093 15.1525 13.6766 15.1525C14.0443 15.1525 14.3893 15.0075 14.6491 14.7442C14.9095 14.4805 15.0519 14.1308 15.0519 13.7584C15.0519 13.3861 14.9092 13.036 14.6491 12.773L10.6518 8.72013C10.4131 8.47819 10.4131 8.086 10.6518 7.84406L14.433 4.01049C14.6934 3.74687 14.8358 3.39743 14.8358 3.02476C14.8358 2.65209 14.6931 2.30265 14.433 2.03903C14.1733 1.7754 13.8279 1.63073 13.4606 1.63073C13.0932 1.63073 12.7479 1.77571 12.4888 2.03903L8.70627 5.8726C8.46759 6.11454 8.081 6.11454 7.84201 5.8726L4.05983 2.03934C3.80007 1.77571 3.45504 1.63104 3.0877 1.63104C2.72036 1.63104 2.37503 1.77602 2.11526 2.03934C1.85519 2.30296 1.71217 2.6524 1.71217 3.02507C1.71217 3.39774 1.8555 3.74717 2.11496 4.0108L5.89652 7.84437C6.1352 8.08631 6.1352 8.4785 5.89652 8.72044L1.8992 12.773C1.63943 13.0363 1.49641 13.3861 1.49641 13.7588C1.49641 14.1308 1.63974 14.4809 1.8992 14.7445C2.15927 15.0081 2.5043 15.1528 2.87164 15.1528C3.23898 15.1528 3.58431 15.0078 3.84408 14.7445L7.84232 10.6922C7.96151 10.5708 8.11798 10.5104 8.27414 10.5104Z" fill="black"/>
</svg>
