<svg width="23" height="22" viewBox="0 0 23 22" fill="none" xmlns="http://www.w3.org/2000/svg">
<path d="M22.7052 19.1531L21.7347 15.5311L21.7347 15.5309L21.7346 15.5306L18.823 4.66429L17.8524 1.04194C17.7556 0.681874 17.5198 0.374935 17.1969 0.18852C16.874 0.00210518 16.4903 -0.0485482 16.1301 0.0476821L12.5079 1.01825C12.357 1.05896 12.2139 1.12454 12.0846 1.21232C11.9797 0.952458 11.7996 0.729826 11.5674 0.572926C11.3352 0.416027 11.0615 0.332002 10.7812 0.33161H7.03125C6.68482 0.33172 6.35076 0.460376 6.09375 0.692665C5.83674 0.460376 5.50268 0.33172 5.15625 0.33161H1.40625C1.03342 0.332027 0.675974 0.480319 0.412341 0.743951C0.148709 1.00758 0.000416563 1.36503 0 1.73786V20.4879C0.000416563 20.8607 0.148709 21.2181 0.412341 21.4818C0.675974 21.7454 1.03342 21.8937 1.40625 21.8941H5.15625C5.50268 21.894 5.83674 21.7653 6.09375 21.533C6.35076 21.7653 6.68482 21.894 7.03125 21.8941H10.7812C11.1541 21.8937 11.5115 21.7454 11.7752 21.4818C12.0388 21.2181 12.1871 20.8607 12.1875 20.4879V5.25583L12.484 6.36252L12.4841 6.36264L12.4841 6.36279L15.3958 17.2292V17.2294L15.3959 17.2296L16.3664 20.8516C16.414 21.03 16.4964 21.1973 16.6088 21.3439C16.7212 21.4905 16.8614 21.6135 17.0213 21.7059C17.1813 21.7982 17.3579 21.8581 17.541 21.8822C17.7242 21.9062 17.9103 21.8939 18.0886 21.8459L21.7109 20.8754C21.8893 20.8276 22.0565 20.7451 22.203 20.6327C22.3495 20.5203 22.4724 20.3801 22.5648 20.2202C22.6571 20.0603 22.717 19.8837 22.7411 19.7006C22.7652 19.5175 22.753 19.3315 22.7052 19.1531ZM13.5109 6.57276L18.0387 5.35959L20.7078 15.3208L16.1801 16.534L13.5109 6.57276ZM7.03125 1.26911H10.7812C10.9055 1.26924 11.0247 1.31867 11.1126 1.40655C11.2004 1.49443 11.2499 1.61358 11.25 1.73786V16.2691H6.5625V1.73786C6.56263 1.61358 6.61206 1.49443 6.69994 1.40655C6.78782 1.31867 6.90697 1.26924 7.03125 1.26911ZM1.40625 1.26911H5.15625C5.28053 1.26924 5.39968 1.31867 5.48756 1.40655C5.57544 1.49443 5.62487 1.61358 5.625 1.73786V5.01911H0.9375V1.73786C0.937632 1.61358 0.987061 1.49443 1.07494 1.40655C1.16282 1.31867 1.28197 1.26924 1.40625 1.26911ZM5.15625 20.9566H1.40625C1.28197 20.9565 1.16282 20.907 1.07494 20.8192C0.987061 20.7313 0.937632 20.6121 0.9375 20.4879V5.95661H5.625V20.4879C5.62487 20.6121 5.57544 20.7313 5.48756 20.8192C5.39968 20.907 5.28053 20.9565 5.15625 20.9566ZM10.7812 20.9566H7.03125C6.90697 20.9565 6.78782 20.907 6.69994 20.8192C6.61206 20.7313 6.56263 20.6121 6.5625 20.4879V17.2066H11.25V20.4879C11.2499 20.6121 11.2004 20.7313 11.1126 20.8192C11.0247 20.907 10.9055 20.9565 10.7812 20.9566ZM12.4659 2.14218C12.4965 2.08876 12.5375 2.04194 12.5863 2.00444C12.6352 1.96694 12.691 1.9395 12.7505 1.92371L16.3727 0.953139C16.4322 0.937177 16.4942 0.933089 16.5552 0.941109C16.6163 0.949129 16.6751 0.969099 16.7284 0.999878C16.7818 1.03066 16.8285 1.07164 16.866 1.12049C16.9034 1.16934 16.9309 1.22509 16.9468 1.28456L17.7961 4.45411L13.2683 5.66729L12.4191 2.49786C12.403 2.43843 12.3988 2.37638 12.4068 2.31533C12.4149 2.25428 12.4349 2.19542 12.4659 2.14218ZM21.7529 19.7514C21.7222 19.8049 21.6813 19.8517 21.6324 19.8892C21.5835 19.9267 21.5277 19.9541 21.4682 19.9699L17.846 20.9405C17.7259 20.9724 17.5981 20.9554 17.4905 20.8932C17.3829 20.8311 17.3043 20.7289 17.2719 20.6089L16.4227 17.4395L20.9504 16.2262L21.7997 19.3958C21.8158 19.4552 21.82 19.5172 21.8119 19.5783C21.8039 19.6393 21.7838 19.6982 21.7529 19.7514Z" fill="white"/>
</svg>
